# AST/ASF file generated using VICON BodyLanguage
# -----------------------------------------------
:version 1.10
:name VICON
:units
  mass 1.0
  length 0.45
  angle deg
:documentation
   .ast/.asf automatically generated from VICON data using
   VICON BodyBuilder and BodyLanguage model FoxedUp or BRILLIANT.MOD
:root
   order TX TY TZ RX RY RZ
   axis XYZ
   position 0 0 0  
   orientation 0 0 0 
:bonedata
  begin
     id 1 
     name lhipjoint
     direction 0.630082 -0.636569 0.44472 
     length 2.82754 
     axis 0 0 0  XYZ
  end
  begin
     id 2 
     name lfemur
     direction 0.34202 -0.939693 0  
     length 7.26371  
     axis 0 0 20  XYZ
    dof rx ry rz
    limits (-160.0 20.0)
           (-70.0 70.0)
           (-60.0 70.0)
  end
  begin
     id 3 
     name ltibia
     direction 0.34202 -0.939693 0   
     length 7.88616   
     axis 0 0 20   XYZ
    dof rx
    limits (-10.0 170.0)
  end
  begin
     id 4 
     name lfoot
     direction 0.0603448 -0.165796 0.984312   
     length 1.77861   
     axis -90 7.62852e-016 20   XYZ
    dof rx rz
    limits (-45.0 90.0)
           (-70.0 20.0)
  end
  begin
     id 5 
     name ltoes
     direction 1.53577e-011 -4.21876e-011 1   
     length 0.902235   
     axis -90 7.62852e-016 20   XYZ
    dof rx
    limits (-90.0 20.0)
  end
  begin
     id 6 
     name rhipjoint
     direction -0.656778 -0.61817 0.431866   
     length 2.9117  
     axis 0 0 0  XYZ 
  end
  begin
     id 7 
     name rfemur
     direction -0.34202 -0.939693 0   
     length 6.81603   
     axis 0 0 -20   XYZ
    dof rx ry rz
    limits (-160.0 20.0)
           (-70.0 70.0)
           (-70.0 60.0)
  end
  begin
     id 8 
     name rtibia
     direction -0.34202 -0.939693 0   
     length 8.05997   
     axis 0 0 -20   XYZ
    dof rx
    limits (-10.0 170.0)
 end
 begin
     id 9 
     name rfoot
     direction -0.0862404 -0.236944 0.967688   
     length 1.84899  
     axis -90 -7.62852e-016 -20   XYZ
    dof rx rz
    limits (-45.0 90.0)
           (-20.0 70.0)
  end
  begin
     id 10 
     name rtoes
     direction -1.53561e-011 -4.21798e-011 1   
     length 0.931579   
     axis -90 -7.62852e-016 -20   XYZ
    dof rx
    limits (-90.0 20.0)
  end
  begin
     id 11 
     name lowerback
     direction -0.0110203 0.991769 -0.127564   
     length 2.05686   
     axis 0 0 0   XYZ
    dof rx ry rz
    limits (-20.0 45.0)
           (-30.0 30.0)
           (-30.0 30.0)
  end
  begin
     id 12 
     name upperback
     direction 0.0109719 0.99993 -0.00432479   
     length 2.06234   
     axis 0 0 0   XYZ
    dof rx ry rz
    limits (-20.0 45.0)
           (-30.0 30.0)
           (-30.0 30.0)
  end
  begin
     id 13 
     name thorax
     direction 0.0173308 0.998351 0.0547306   
     length 2.09856   
     axis 0 0 0   XYZ
    dof rx ry rz
    limits (-20.0 45.0)
           (-30.0 30.0)
           (-30.0 30.0)
  end
  begin
     id 14 
     name lowerneck
     direction -0.0311736 0.989033 0.144366   
     length 1.98151   
     axis 0 0 0   XYZ
    dof rx ry rz
    limits (-20.0 45.0)
           (-30.0 30.0)
           (-30.0 30.0)
  end
  begin
     id 15 
     name upperneck
     direction 0.0421057 0.975772 -0.214698   
     length 2.01457   
     axis 0 0 0   XYZ
    dof rx ry rz
    limits (-20.0 45.0)
           (-30.0 30.0)
           (-30.0 30.0)
  end
  begin
     id 16
     name head
     direction 0.0136911 0.995958 -0.0887718  
     length 2.03562  
     axis 0 0 0   XYZ
    dof rx ry rz
    limits (-20.0 45.0)
           (-30.0 30.0)
           (-30.0 30.0)
  end
  begin
     id 17 
     name lclavicle
     direction 0.915335 0.396201 0.0720134  
     length 4.16217  
     axis 0 0 0   XYZ
    dof ry rz
    limits (-20.0 10.0)
           (0.0 20.0)
  end
  begin
     id 18 
     name lhumerus
     direction 1 -4.48965e-011 6.383e-018   
     length 4.93042   
     axis -180 -30 -90   XYZ
    dof rx ry rz
    limits (-60.0 90.0)
           (-90.0 90.0)
           (-90.0 90.0)
  end
  begin
     id 19
     name lradius
     direction 1 -4.48972e-011 8.8689e-027   
     length 3.68177   
     axis -180 -30 -90   XYZ
    dof rx
    limits (-10.0 170.0)
  end
  begin
     id 20
     name lwrist
     direction 1 -4.48953e-011 1.17971e-026   
     length 1.84089   
     axis -7.69454e-015 90 90   XYZ
    dof ry
    limits (-180.0 0.0)
 end
  begin
     id 21 
     name lhand
     direction 1 -4.49027e-011 2.35802e-026   
     length 0.721479   
     axis -1.50533e-014 90 90   XYZ
    dof rx rz
    limits (-90.0 90.0)
           (-45.0 45.0)
  end
  begin
     id 22 
     name lfingers
     direction 1 -4.48915e-011 4.72027e-026   
     length 0.581675   
     axis -3.01059e-014 90 90   XYZ
    dof rx
    limits (0.0 90.0)
  end
  begin
     id 23
     name lthumb
     direction 0.707107 -6.34948e-011 0.707107   
     length 0.835172   
     axis -90 45 -5.12164e-014   XYZ
    dof rx rz
    limits (-45.0 45.0)
           (-45.0 45.0)
  end
  begin
     id 24 
     name rclavicle
     direction -0.882781 0.469197 0.0234974   
     length 3.95647  
     axis 0 0 0   XYZ 
    dof ry rz
    limits (-10.0 20.0)
           (-20.0 0.0)
  end
  begin
     id 25 
     name rhumerus
     direction -1 -4.48965e-011 -1.54906e-018  
     length 5.07905   
     axis -180 30 90   XYZ
    dof rx ry rz
    limits (-90.0 60.0)
           (-90.0 90.0)
           (-90.0 90.0)
  end
  begin
     id 26 
     name rradius
     direction -1 -4.48972e-011 5.47489e-027   
     length 3.54394   
     axis -180 30 90   XYZ
    dof rx
    limits (-10.0 170.0)
  end
  begin
     id 27 
     name rwrist
     direction -1 -4.48955e-011 1.17969e-026   
     length 1.77197   
     axis -7.69454e-015 -90 -90   XYZ
    dof ry
    limits (-180.0 0.0)
  end
  begin
     id 28
     name rhand
     direction -1 -4.48982e-011 2.35888e-026   
     length 0.681156   
     axis -1.50533e-014 -90 -90   XYZ
    dof rx rz
    limits (-90.0 90.0)
           (-45.0 45.0)
  end
  begin
     id 29
     name rfingers
     direction -1 -4.48955e-011 4.71877e-026   
     length 0.549165   
     axis -3.01059e-014 -90 -90   XYZ
    dof rx
    limits (0.0 90.0)
  end
  begin
     id 30
     name rthumb
     direction -0.707107 -6.3491e-011 0.707107   
     length 0.788495   
     axis -90 -45 5.12164e-014   XYZ
    dof rx rz
    limits (-45.0 45.0)
           (-45.0 45.0)
  end
:hierarchy
  begin
    root lhipjoint rhipjoint lowerback
    lhipjoint lfemur
    lfemur ltibia
    ltibia lfoot
    lfoot ltoes
    rhipjoint rfemur
    rfemur rtibia
    rtibia rfoot
    rfoot rtoes
    lowerback upperback
    upperback thorax
    thorax lowerneck lclavicle rclavicle
    lowerneck upperneck
    upperneck head
    lclavicle lhumerus
    lhumerus lradius
    lradius lwrist
    lwrist lhand lthumb
    lhand lfingers
    rclavicle rhumerus
    rhumerus rradius
    rradius rwrist
    rwrist rhand rthumb
    rhand rfingers
  end

#!OML:ASF H:\Bending\Project 1\Capture day 1\Session 1\Subject.ASF
:FULLY-SPECIFIED
:DEGREES
385
root -9.32933 18.0331 -16.211 218.973 86.9865 213.076
lowerback 5.19948 -0.438726 0.983669
upperback -3.0145 -0.359214 2.10478
thorax -6.0483 -0.156587 1.67569
lowerneck -24.5195 -3.47666 -5.7395
upperneck 30.5206 -3.09695 2.31311
head 14.8497 -1.51123 1.36266
rclavicle 4.96962e-017 1.07344e-014
rhumerus -43.8866 1.99445 -77.6653
rradius 31.4936
rwrist 23.7608
rhand -13.7448 -11.1501
rfingers 7.12502
rthumb 12.3751 -40.7639
lclavicle 4.96962e-017 1.07344e-014
lhumerus -39.8955 0.152342 88.7429
lradius 27.7723
lwrist 19.674
lhand -32.0866 6.54271
lfingers 7.12502
lthumb -5.33235 36.4556
rfemur 4.36793 -3.06816 16.4249
rtibia 6.36111e-015
rfoot -10.9171 -18.0798
rtoes 11.4498
lfemur -8.75488 -18.6215 -10.1013
ltibia 20.3149
lfoot -22.0234 12.2473
ltoes -7.20483
386
root -9.33997 18.0336 -16.2121 218.764 86.9774 212.891
lowerback 5.23903 -0.458996 1.02824
upperback -3.02744 -0.383062 2.08198
thorax -6.08458 -0.1707 1.63003
lowerneck -24.5029 -3.43054 -5.69814
upperneck 30.5365 -3.03916 2.2925
head 14.8489 -1.48459 1.35905
rclavicle 3.88873e-015 1.11319e-014
rhumerus -43.9264 2.13394 -77.7232
rradius 31.7451
rwrist 23.6447
rhand -13.8685 -11.1619
rfingers 7.12502
rthumb 12.2559 -40.7827
lclavicle 3.88873e-015 1.11319e-014
lhumerus -39.9527 0.202889 88.6891
lradius 27.7642
lwrist 19.6273
lhand -32.0474 6.49423
lfingers 7.12502
lthumb -5.29453 36.4081
rfemur 4.36489 -3.07978 16.4144
rtibia 9.54166e-015
rfoot -10.9285 -18.049
rtoes 11.6514
lfemur -8.77743 -18.5571 -10.1025
ltibia 20.3177
lfoot -21.9343 12.2296
ltoes -7.66308
387
root -9.35077 18.0342 -16.213 219.334 86.9844 213.483
lowerback 5.2782 -0.468073 1.07684
upperback -3.04591 -0.39069 2.06819
thorax -6.12685 -0.176664 1.5899
lowerneck -24.4883 -3.39043 -5.66578
upperneck 30.5886 -2.98716 2.2781
head 14.8655 -1.46016 1.35889
rclavicle -2.2239e-015 -1.03368e-014
rhumerus -43.9585 2.3007 -77.7855
rradius 32.0042
rwrist 23.5388
rhand -13.9553 -11.1414
rfingers 7.12502
rthumb 12.1722 -40.7673
lclavicle -2.2239e-015 -1.03368e-014
lhumerus -40.021 0.190401 88.6857
lradius 27.8141
lwrist 19.6968
lhand -32.0325 6.40071
lfingers 7.12502
lthumb -5.2801 36.3149
rfemur 4.35256 -3.05298 16.432
rtibia 7.95139e-015
rfoot -10.9249 -18.0317
rtoes 11.8378
lfemur -8.79523 -18.4925 -10.0813
ltibia 20.3312
lfoot -21.8578 12.2461
ltoes -8.17434
388
root -9.36133 18.0346 -16.2135 220.39 87.0003 214.561
lowerback 5.30785 -0.458065 1.12463
upperback -3.06033 -0.372613 2.06141
thorax -6.15987 -0.169736 1.55467
lowerneck -24.484 -3.36792 -5.64943
upperneck 30.6604 -2.9537 2.26571
head 14.8949 -1.445 1.35874
rclavicle 6.21202e-015 2.78299e-015
rhumerus -43.9713 2.48547 -77.849
rradius 32.2695
rwrist 23.4156
rhand -13.9744 -11.073
rfingers 7.12502
rthumb 12.1538 -40.6999
lclavicle 6.21202e-015 2.78299e-015
lhumerus -40.0758 0.0885965 88.7529
lradius 27.917
lwrist 19.8624
lhand -32.0437 6.28834
lfingers 7.12502
lthumb -5.29088 36.2023
rfemur 4.33624 -3.00263 16.4679
rtibia 2.06736e-014
rfoot -10.9141 -18.0246
rtoes 12.0299
lfemur -8.80909 -18.4288 -10.0454
ltibia 20.352
lfoot -21.7931 12.2796
ltoes -8.6795
389
root -9.3714 18.0349 -16.2137 221.477 87.0151 215.669
lowerback 5.3219 -0.428187 1.16537
upperback -3.06476 -0.328866 2.05901
thorax -6.17372 -0.149795 1.52488
lowerneck -24.4887 -3.36839 -5.65091
upperneck 30.7279 -2.94446 2.24889
head 14.926 -1.44293 1.35478
rclavicle 1.0138e-014 -2.78299e-014
rhumerus -43.9584 2.67704 -77.9097
rradius 32.5373
rwrist 23.252
rhand -13.9328 -10.9558
rfingers 7.12502
rthumb 12.1939 -40.5804
lclavicle 1.0138e-014 -2.78299e-014
lhumerus -40.0951 -0.0827607 88.885
lradius 28.0546
lwrist 20.0633
lhand -32.071 6.18768
lfingers 7.12502
lthumb -5.31728 36.101
rfemur 4.32143 -2.95174 16.5051
rtibia -7.95139e-015
rfoot -10.9142 -18.0154
rtoes 12.2883
lfemur -8.8242 -18.3665 -10.0069
ltibia 20.3764
lfoot -21.7367 12.3051
ltoes -9.11045
